<?xml version="1.0" standalone="no"?>
<!DOCTYPE svg PUBLIC "-//W3C//DTD SVG 20010904//EN"
 "http://www.w3.org/TR/2001/REC-SVG-20010904/DTD/svg10.dtd">
<svg version="1.0" xmlns="http://www.w3.org/2000/svg"
 width="1200.000000pt" height="356.000000pt" viewBox="0 0 1200.000000 356.000000"
 preserveAspectRatio="xMidYMid meet">
<metadata>
Created by potrace 1.16, written by Peter Selinger 2001-2019
</metadata>
<g transform="translate(0.000000,356.000000) scale(0.100000,-0.100000)"
fill="#000000" stroke="none">
<path d="M325 3466 c-94 -29 -160 -84 -206 -168 l-34 -63 0 -1455 0 -1455 23
-46 c37 -75 87 -125 160 -161 l67 -33 5305 -8 c2918 -4 5463 -6 5655 -4 337 3
352 4 408 26 71 28 153 105 188 176 l24 50 3 1355 c1 777 -1 1398 -7 1456 -7
76 -16 114 -35 153 -52 102 -140 164 -258 182 -37 5 -2350 8 -5658 8 -4467 0
-5603 -3 -5635 -13z m2185 -518 c0 -118 -55 -243 -145 -333 -71 -71 -137 -109
-221 -126 -89 -18 -98 -12 -90 63 22 192 151 355 336 426 30 12 70 21 88 21
l32 1 0 -52z m3220 -278 l0 -310 -45 0 -45 0 0 310 0 310 45 0 45 0 0 -310z
m740 185 c4 -66 7 -115 8 -109 7 37 137 57 191 29 146 -75 130 -352 -23 -410
-61 -23 -125 -14 -166 25 l-30 28 0 -30 c0 -28 -1 -29 -42 -26 l-43 3 -3 294
c-2 162 -1 300 2 308 4 10 20 13 53 11 l48 -3 5 -120z m530 -186 l0 -310 -47
3 -48 3 -3 308 -2 307 50 0 50 0 0 -311z m2620 191 l0 -119 36 24 c71 48 172
25 211 -47 14 -27 18 -65 21 -195 l4 -163 -51 0 -51 0 0 134 c0 181 -14 216
-90 216 -21 0 -39 -9 -55 -26 -23 -25 -25 -34 -27 -173 l-3 -146 -47 -3 -48
-3 0 310 0 311 50 0 50 0 0 -120z m-5472 73 c11 -21 182 -551 182 -564 0 -5
-22 -9 -48 -9 l-49 0 -25 83 -26 82 -95 3 -94 3 -27 -86 -27 -85 -44 0 c-29 0
-45 4 -45 13 0 20 171 551 182 565 16 19 105 16 116 -5z m5142 -92 l0 -50 53
-3 52 -3 0 -35 0 -35 -53 -3 -54 -3 4 -124 c2 -77 7 -128 15 -136 6 -6 26 -12
45 -13 30 -1 33 -4 36 -38 3 -33 1 -37 -28 -43 -72 -16 -145 21 -154 78 -3 18
-7 86 -8 152 l-3 120 -33 3 c-32 3 -33 5 -30 40 3 32 7 37 30 40 23 3 27 8 30
39 3 33 7 38 43 49 22 6 43 12 48 13 4 1 7 -21 7 -48z m-4150 -69 c23 -11 43
-33 58 -62 20 -40 22 -58 22 -197 l0 -153 -39 0 c-30 0 -40 4 -44 20 -5 20 -5
20 -39 1 -103 -59 -206 -18 -215 86 -9 89 62 153 180 161 52 4 57 6 57 28 0
13 -10 34 -21 45 -18 18 -29 20 -78 16 -31 -3 -66 -8 -77 -12 -17 -5 -23 -2
-28 20 -8 33 -8 33 41 50 54 20 141 18 183 -3z m1007 -8 c51 -38 58 -65 61
-241 l3 -163 -40 0 c-30 0 -41 4 -46 19 -6 19 -7 19 -38 1 -73 -42 -145 -33
-193 23 -23 27 -26 38 -22 86 4 47 10 59 41 87 39 36 90 54 155 54 38 0 42 2
42 25 0 14 -10 35 -21 46 -18 18 -29 20 -78 16 -31 -3 -66 -8 -77 -12 -17 -5
-23 -2 -28 20 -8 33 -8 33 41 51 56 21 165 14 200 -12z m1284 3 c47 -31 79
-98 79 -164 l0 -53 -140 0 c-90 0 -140 -4 -140 -10 0 -31 32 -80 61 -96 30
-15 114 -17 168 -3 16 4 35 -51 23 -63 -5 -5 -36 -13 -69 -19 -164 -29 -274
54 -274 206 0 95 34 161 106 206 45 28 142 26 186 -4z m732 9 c41 -17 88 -66
104 -108 6 -18 12 -61 12 -94 1 -91 -36 -158 -109 -197 -48 -25 -63 -28 -114
-24 -107 10 -176 83 -184 197 -7 103 30 179 107 220 43 23 137 26 184 6z m337
-20 c5 -27 6 -28 19 -12 40 48 139 61 196 26 57 -35 70 -82 70 -254 l0 -151
-47 -3 -48 -3 0 128 c0 185 -15 223 -88 223 -55 0 -75 -28 -83 -116 -4 -44 -8
-114 -8 -156 l-1 -78 -43 0 -44 0 -6 207 c-3 114 -3 211 0 216 2 4 21 7 41 5
32 -3 38 -7 42 -32z m1805 -6 c38 -37 69 -118 63 -167 l-3 -28 -137 -3 -138
-3 0 -24 c0 -14 13 -39 28 -56 24 -27 37 -33 85 -37 31 -2 70 1 88 7 38 13 37
14 45 -27 6 -28 3 -33 -22 -43 -16 -6 -63 -12 -104 -12 -132 -2 -206 60 -217
182 -7 76 9 137 50 186 42 52 79 66 159 62 62 -2 71 -6 103 -37z m-5759 -115
c53 -167 55 -173 60 -160 1 6 24 76 49 158 l47 147 49 0 c27 0 49 -1 49 -3 0
-1 -35 -94 -78 -207 l-78 -205 -47 -3 c-26 -2 -47 -1 -47 1 0 2 -34 96 -75
208 -41 112 -75 205 -75 207 0 2 23 2 51 0 l51 -3 44 -140z m924 -65 l0 -210
-45 0 -45 0 0 210 0 210 45 0 45 0 0 -210z m-2829 -136 c30 -9 76 -27 103 -41
49 -25 176 -140 176 -159 0 -6 -12 -17 -26 -25 -35 -18 -118 -110 -151 -166
-14 -25 -35 -75 -45 -112 -59 -213 32 -439 224 -558 32 -20 58 -39 58 -43 0
-5 -13 -39 -28 -77 -82 -201 -251 -428 -360 -484 -39 -20 -61 -24 -127 -23
-67 0 -94 6 -170 36 -153 61 -233 60 -410 -7 -114 -43 -194 -47 -262 -14 -133
64 -330 351 -414 601 -71 210 -89 447 -49 617 45 185 164 344 311 414 156 74
266 75 444 7 139 -54 171 -55 300 -6 55 21 127 44 160 52 71 16 188 11 266
-12z m5072 -504 c37 -11 67 -26 67 -32 0 -21 -41 -148 -48 -148 -4 0 -31 9
-59 20 -128 48 -272 33 -332 -35 -26 -30 -31 -44 -31 -88 0 -92 28 -118 223
-210 223 -106 290 -186 291 -347 1 -72 -3 -94 -26 -142 -48 -103 -144 -173
-276 -198 -87 -17 -260 -8 -334 18 -104 37 -99 29 -75 122 12 46 26 78 32 76
123 -56 140 -60 250 -60 99 -1 114 1 153 24 59 34 85 78 84 146 -1 89 -35 127
-172 191 -148 69 -161 76 -213 115 -196 146 -173 417 46 529 102 53 286 61
420 19z m-3229 -282 c52 -161 136 -421 187 -578 50 -157 94 -291 97 -298 3
-10 -18 -12 -99 -10 l-103 3 -54 168 -54 167 -192 0 -193 0 -50 -167 -50 -168
-101 -3 -101 -3 24 73 c13 40 90 278 170 528 80 250 155 483 166 518 l21 62
118 0 119 0 95 -292z m3766 67 l0 -105 105 0 105 0 0 -70 0 -70 -105 0 -105 0
0 -239 c0 -132 4 -251 9 -264 19 -50 50 -67 117 -67 l61 0 7 -46 c11 -86 10
-92 -31 -103 -21 -6 -70 -11 -109 -11 -59 0 -81 5 -125 28 -45 24 -59 37 -84
87 l-30 59 -5 275 -5 276 -63 3 -63 3 3 67 3 67 63 3 62 3 0 79 0 78 73 22
c39 11 77 23 82 25 32 12 35 5 35 -100z m-2715 -120 c60 -29 133 -102 165
-165 12 -23 28 -72 36 -109 49 -235 -35 -459 -207 -547 -42 -21 -72 -28 -137
-32 -104 -6 -159 9 -216 59 -24 22 -47 39 -50 39 -3 0 -6 -97 -6 -215 l0 -215
-95 0 -95 0 0 600 0 601 83 -3 82 -3 5 -63 5 -63 42 45 c73 78 153 108 267
101 47 -3 86 -12 121 -30z m978 2 c245 -114 296 -549 89 -756 -69 -68 -129
-93 -235 -99 -103 -5 -158 11 -219 66 l-38 34 0 -216 0 -217 -97 3 -98 3 -3
598 -2 597 85 0 85 0 0 -49 c0 -81 6 -85 53 -34 70 76 150 105 265 98 38 -3
85 -14 115 -28z m2557 23 c122 -23 223 -97 275 -200 30 -59 55 -163 55 -230 0
-68 -27 -178 -57 -237 -34 -68 -117 -147 -190 -181 -53 -25 -69 -27 -178 -27
-111 0 -125 2 -182 29 -111 51 -198 167 -223 296 -65 343 178 611 500 550z
m940 -83 l0 -92 -57 -1 c-68 -1 -112 -21 -147 -67 -47 -61 -50 -79 -55 -357
l-6 -265 -84 -3 c-46 -2 -88 1 -92 5 -5 5 -9 197 -9 428 l-1 420 79 3 79 3 7
-38 c3 -21 6 -56 6 -78 l0 -40 21 35 c54 90 128 137 222 139 l37 1 0 -93z
m654 59 c125 -61 196 -196 196 -373 l0 -83 -285 0 -285 0 0 -26 c0 -77 52
-159 123 -196 57 -30 206 -37 293 -14 34 9 66 16 71 16 9 0 33 -84 33 -114 0
-35 -177 -71 -310 -63 -123 7 -193 33 -265 98 -175 161 -179 487 -8 670 82 88
168 120 301 115 64 -3 94 -10 136 -30z"/>
<path d="M6499 2684 c-18 -19 -25 -40 -29 -89 -7 -80 3 -118 36 -144 72 -57
164 9 164 116 0 88 -40 143 -105 143 -32 0 -47 -6 -66 -26z"/>
<path d="M4049 2735 l-36 -125 75 0 c61 0 73 3 68 15 -5 13 -45 145 -65 213
-5 17 -15 -8 -42 -103z"/>
<path d="M5021 2552 c-84 -42 -43 -151 45 -122 39 13 64 56 64 110 0 28 -2 30
-37 30 -21 0 -54 -8 -72 -18z"/>
<path d="M6013 2555 c-56 -24 -68 -71 -27 -111 19 -20 31 -24 52 -19 49 12 72
43 72 97 0 48 0 48 -32 48 -18 -1 -47 -7 -65 -15z"/>
<path d="M7266 2694 c-14 -15 -26 -30 -26 -35 0 -4 -3 -14 -6 -23 -5 -14 7
-16 91 -16 l97 0 -7 28 c-18 72 -97 97 -149 46z"/>
<path d="M8031 2707 c-75 -39 -82 -210 -10 -261 74 -51 159 15 159 123 0 109
-74 177 -149 138z"/>
<path d="M4251 1734 c-5 -22 -17 -68 -26 -104 -9 -36 -36 -126 -59 -200 -24
-74 -47 -145 -50 -157 l-7 -23 155 0 c86 0 156 4 156 8 0 4 -20 68 -45 142
-25 74 -60 187 -76 250 -17 63 -33 117 -34 119 -2 1 -8 -14 -14 -35z"/>
<path d="M5228 1441 c-34 -22 -53 -44 -74 -88 -27 -54 -29 -66 -29 -178 0
-108 3 -125 25 -169 37 -73 86 -109 159 -114 78 -6 121 10 170 63 56 61 74
129 69 254 -8 175 -78 261 -216 261 -47 0 -67 -6 -104 -29z"/>
<path d="M6208 1440 c-34 -22 -55 -47 -73 -85 -25 -51 -26 -59 -23 -193 3
-137 4 -141 33 -184 38 -54 102 -88 167 -88 120 0 196 81 217 231 18 130 -19
253 -94 314 -31 26 -46 30 -108 33 -67 3 -75 1 -119 -28z"/>
<path d="M8928 1480 c-62 -18 -97 -50 -130 -118 -32 -64 -33 -72 -33 -183 0
-109 2 -119 30 -174 38 -74 93 -116 163 -123 141 -13 238 115 236 313 0 77 -4
99 -29 153 -50 112 -140 161 -237 132z"/>
<path d="M10475 1495 c-5 -2 -22 -6 -37 -9 -61 -14 -148 -127 -148 -194 l0
-22 193 2 192 3 -3 44 c-4 67 -41 130 -92 156 -27 13 -89 25 -105 20z"/>
</g>
</svg>
